# xmcd CD database file
# Copyright (C) 1996 Ti Kan
#
# Track frame offsets:
#	182
#	16705
#	34620
#	40515
#	46382
#	63390
#	79757
#	95532
#	110797
#	118680
#	139777
#	151910
#	163875
#	177052
#	190325
#	199927
#	219330
#	232272
#	252440
#	268562
#
# Disc length: 3742 seconds
#
# Revision: 1
# Processed by: cddbd v1.4b41PL1 Copyright (c) Steve Scherf et al.
# Submitted via: EasyCD 2.21 - (C) 1996 Greg Leichner
#
DISCID=150e9c14
DTITLE=Louis Armstrong - The Collection
DYEAR=1900
DGENRE=
TTITLE0=Hello Dolly!
TTITLE1=Cabaret
TTITLE2=Tiger Rag
TTITLE3=When It's A Sleepy Time Down South
TTITLE4=Indiana
TTITLE5=Muskrat Ramble
TTITLE6=Mack The Knife
TTITLE7=Blueberry Hill
TTITLE8=St. James Infirmary
TTITLE9=A Kiss To Build A Dream On
TTITLE10=When The Saints Go Marchin' In
TTITLE11=Jeepers Creepers
TTITLE12=On The Sunny Side of the Street
TTITLE13=Ain't Misbehavin'
TTITLE14=Panama Rag
TTITLE15=Black and Blue
TTITLE16=Dear Old Southland
TTITLE17=Basin Street  Blues
TTITLE18=Lazy River
TTITLE19=Struttin' With Some Barbecue
EXTD=
EXTT0=
EXTT1=
EXTT2=
EXTT3=
EXTT4=
EXTT5=
EXTT6=
EXTT7=
EXTT8=
EXTT9=
EXTT10=
EXTT11=
EXTT12=
EXTT13=
EXTT14=
EXTT15=
EXTT16=
EXTT17=
EXTT18=
EXTT19=
PLAYORDER=
